<svg width="78" height="79" viewBox="0 0 78 79" fill="none" xmlns="http://www.w3.org/2000/svg">
<path d="M65 21.0283C65 17.2571 65 15.3715 63.8284 14.1999C62.6569 13.0283 60.7712 13.0283 57 13.0283H21C17.2288 13.0283 15.3431 13.0283 14.1716 14.1999C13 15.3715 13 17.2571 13 21.0283V63.0791C13 64.0219 13 64.4933 13.2929 64.7862C13.5858 65.0791 14.0572 65.0791 15 65.0791H57C60.7712 65.0791 62.6569 65.0791 63.8284 63.9075C65 62.736 65 60.8503 65 57.0791V21.0283Z" stroke="#222222"/>
<path d="M29.25 39.0537L48.75 39.0537" stroke="#222222" stroke-linecap="round" stroke-linejoin="round"/>
<path d="M39 29.2942L39 48.8132" stroke="#222222" stroke-linecap="round" stroke-linejoin="round"/>
</svg>
